<?xml version="1.0" standalone="no"?>
<!DOCTYPE svg PUBLIC "-//W3C//DTD SVG 1.1//EN" "http://www.w3.org/Graphics/SVG/1.1/DTD/svg11.dtd" >
<svg xmlns="http://www.w3.org/2000/svg">
<metadata>Generated by IcoMoon</metadata>
<defs>
<font id="bolivar" horiz-adv-x="1024">
<font-face units-per-em="1024" ascent="960" descent="-64" />
<missing-glyph horiz-adv-x="1024" />
<glyph unicode="&#x20;" horiz-adv-x="512" d="" />
<glyph unicode="&#xe900;" glyph-name="menu" horiz-adv-x="1365" d="M888.402 681.23h-612.803c-27.44 0-45.732 18.292-45.732 45.732s18.292 45.732 45.732 45.732h608.227c27.44 0 45.732-18.292 45.732-45.732s-18.292-45.732-41.16-45.732zM1094.196 402.268h-818.593c-27.44 0-45.732 18.292-45.732 45.732s18.292 45.732 45.732 45.732h818.593c27.44 0 45.732-18.292 45.732-45.732s-18.292-45.732-45.732-45.732zM778.647 123.307h-503.047c-27.44 0-45.732 18.292-45.732 45.732s18.292 45.732 45.732 45.732h498.472c27.44 0 45.732-18.292 45.732-45.732s-18.292-45.732-41.16-45.732z" />
<glyph unicode="&#xe901;" glyph-name="arrow_down" d="M316.16 593.493l195.84-195.413 195.84 195.413 60.16-60.16-256-256-256 256 60.16 60.16z" />
<glyph unicode="&#xe902;" glyph-name="agregar" d="M849.189 860.16h-580.389c-41.326 0-74.606-33.646-74.606-74.606v-580.389c0-40.96 33.646-74.606 74.606-74.606h580.389c40.96 0 74.606 33.646 74.606 74.606v580.023c0.366 41.326-33.28 74.971-74.606 74.971zM869.303 204.8c0-10.971-8.777-19.749-19.749-19.749h-580.754c-10.971 0-19.749 8.777-19.749 19.749v580.389c0 10.971 8.777 19.749 19.749 19.749h580.389c10.971 0 19.749-8.777 19.749-19.749v-580.389zM755.931 90.697h-582.217c-10.606 0-19.017 8.411-19.017 19.017v582.217c0 14.994-12.434 27.429-27.429 27.429s-27.429-12.069-27.429-27.429v-582.217c0-40.594 33.28-73.874 73.874-73.874h582.217c14.994 0 27.429 12.434 27.429 27.429s-12.069 27.429-27.429 27.429zM747.52 522.606h-160.914v160.914c0 14.994-12.434 27.429-27.429 27.429s-27.429-12.434-27.429-27.429v-160.914h-160.914c-14.994 0-27.429-12.434-27.429-27.429s12.434-27.429 27.429-27.429h160.914v-160.914c0-14.994 12.434-27.429 27.429-27.429s27.429 12.434 27.429 27.429v160.914h160.914c14.994 0 27.429 12.434 27.429 27.429s-12.434 27.429-27.429 27.429z" />
<glyph unicode="&#xe903;" glyph-name="alarma" d="M289.646 198.217c0-14.994 12.434-27.429 27.429-27.429h390.217c14.994 0 27.429 12.434 27.429 27.429v155.429c0 122.514-99.84 222.354-222.354 222.354s-222.354-99.84-222.354-222.354v-155.429zM344.503 353.646c0 92.16 74.971 167.497 167.497 167.497s167.497-75.337 167.497-167.497v-128h-334.994v128zM770.926 112.64c0-14.994-12.434-27.429-27.429-27.429h-462.994c-14.994 0-27.429 12.434-27.429 27.429s12.434 27.429 27.429 27.429h463.36c14.994 0 27.063-12.069 27.063-27.429zM484.571 640v143.36c0 14.994 12.434 27.429 27.429 27.429s27.429-12.434 27.429-27.429v-142.994c0-14.994-12.434-27.429-27.429-27.429s-27.429 12.069-27.429 27.063zM182.126 635.246c-10.606 10.606-10.606 28.16 0 38.766s28.16 10.606 38.766 0l89.234-89.234c10.606-10.606 10.606-28.16 0-38.766-5.486-5.486-12.434-8.046-19.383-8.046s-13.897 2.56-19.383 8.046l-89.234 89.234zM228.937 344.503c0-14.994-12.434-27.429-27.429-27.429h-128.366c-14.994 0-27.429 12.434-27.429 27.429s12.434 27.429 27.429 27.429h128.366c15.36 0 27.429-12.434 27.429-27.429zM978.286 344.503c0-14.994-12.434-27.429-27.429-27.429h-135.68c-14.994 0-27.429 12.434-27.429 27.429s12.434 27.429 27.429 27.429h135.68c14.994 0 27.429-12.434 27.429-27.429zM702.903 535.406c-10.606 10.606-10.606 28.16 0 38.766l99.84 99.84c10.606 10.606 28.16 10.606 38.766 0s10.606-28.16 0-38.766l-99.84-99.84c-5.486-5.486-12.434-8.046-19.383-8.046s-13.897 2.926-19.383 8.046zM514.926 441.783c0-14.994-12.434-27.429-27.429-27.429-25.234 0-45.714-20.48-45.714-45.714 0-14.994-12.434-27.429-27.429-27.429s-27.429 12.434-27.429 27.429c0 55.589 44.983 100.571 100.571 100.571 15.36 0 27.429-12.069 27.429-27.429z" />
<glyph unicode="&#xe904;" glyph-name="auricular" d="M870.034 486.766h-10.606v6.217c0 200.411-146.286 345.966-347.429 345.966s-347.429-145.554-347.429-345.966v-6.217h-10.606c-55.954 0-101.303-48.64-101.303-108.251v-88.137c0-59.611 45.349-108.251 101.303-108.251h38.034c14.994 0 27.429 12.434 27.429 27.429 0 0.366 0 0.366 0 0.731s0 0.366 0 0.731v281.6c0 168.594 122.88 291.109 292.571 291.109s292.571-122.514 292.571-291.109v-281.6c0-18.286 0-39.131-1.463-42.423-0.366-0.366-4.389-2.194-19.383-2.194h-160.914c-9.509 16.457-27.063 27.429-47.177 27.429-30.354 0-54.857-24.503-54.857-54.857s24.503-54.857 54.857-54.857c20.114 0 37.669 10.971 47.177 27.429h160.914c61.074 0 72.411 30.354 74.606 70.217h11.337c55.954 0 101.303 48.64 101.303 108.251v88.503c0.366 59.977-44.983 108.251-100.937 108.251zM107.52 290.743v87.771c0 29.257 20.846 53.394 46.446 53.394h10.606v-194.926h-10.606c-25.6 0.366-46.446 24.137-46.446 53.76zM916.48 290.743c0-29.257-20.846-53.394-46.446-53.394h-10.606v194.926h10.606c25.6 0 46.446-23.771 46.446-53.394v-88.137z" />
<glyph unicode="&#xe905;" glyph-name="bote" d="M256 384h146.286c14.994 0 27.429 12.434 27.429 27.429v256c0 8.411-4.023 16.457-10.606 21.577s-15.36 6.949-23.406 5.12c-6.949-1.829-167.131-44.617-167.131-282.697 0-14.994 12.434-27.429 27.429-27.429zM374.857 624.274v-185.417h-90.697c6.949 110.811 56.32 162.377 90.697 185.417zM970.606 320.731c-5.12 5.486-12.434 8.411-19.749 8.411h-420.571v61.806c4.754-4.389 11.337-6.949 18.286-6.949h219.429c14.994 0 27.429 12.434 27.429 27.429 0 305.371-268.069 456.411-279.406 462.994-8.411 4.754-18.651 4.389-27.063-0.366-8.411-5.12-13.531-13.897-13.531-23.771v-521.143h-402.286c-8.046 0-15.36-3.291-20.846-9.509-5.12-5.851-7.68-13.897-6.583-21.943 6.583-46.811 45.714-279.406 162.377-279.406h607.817c142.994 0 160.914 253.074 162.377 281.966 0.366 7.68-2.194 14.994-7.68 20.48zM530.286 799.086c67.657-50.469 197.851-171.52 209.554-360.229h-191.269c-6.949 0-13.531-2.56-18.286-6.949v367.177zM815.909 73.143h-607.817c-45.349 0-85.211 110.811-102.4 201.143h815.177c-8.777-73.143-37.669-201.143-104.96-201.143z" />
<glyph unicode="&#xe906;" glyph-name="camion" d="M971.703 283.429c0 204.8-14.629 287.817-57.417 329.509-36.937 36.206-87.040 34.743-156.526 32.914-16.823-0.366-35.109-1.097-54.857-1.097h-74.606v82.651c0 14.994-12.434 27.429-27.429 27.429h-444.343c-7.68 0-14.629 0.366-21.577 0.731-26.697 1.097-51.566 1.829-69.12-14.994-9.874-9.143-14.629-22.309-14.629-38.034v-471.040c0-14.994 12.434-27.429 27.429-27.429h75.337c14.263-37.303 50.469-64 92.526-64 42.789 0 78.629 27.063 92.891 64.731 1.463-0.366 2.926-0.731 4.389-0.731h317.806c14.263-37.303 50.469-64 92.526-64 42.789 0 79.36 27.429 93.257 65.829 2.56-0.731 5.486-1.829 8.411-1.829h39.863c26.697 0 50.834 11.337 65.097 30.354 10.606 14.629 14.629 32.183 10.971 49.006zM106.057 700.709c6.583 0.731 17.92 0.366 26.697 0 7.68-0.366 15.36-0.731 23.771-0.731h416.914v-438.857c0-0.731 0.366-1.463 0.366-2.194h-229.669c-9.143 45.714-49.371 80.091-97.28 80.091s-88.503-34.377-97.28-80.091h-43.52v441.783zM246.491 194.926c-24.503 0-44.617 20.114-44.617 44.617s20.114 44.617 44.617 44.617 44.617-20.114 44.617-44.617-20.114-44.617-44.617-44.617zM754.103 194.926c-24.503 0-44.617 20.114-44.617 44.617s20.114 44.617 44.617 44.617 44.617-20.114 44.617-44.617-20.114-44.617-44.617-44.617zM916.48 267.337c-2.926-4.023-10.24-8.411-21.211-8.411h-39.497c-1.463 0-2.926-0.731-4.023-0.731-8.777 46.080-49.006 80.823-97.646 80.823-48.274 0-88.503-34.377-97.28-80.091h-28.891c0 0.731 0.366 1.463 0.366 2.194v329.143h74.606c20.48 0 39.131 0.366 56.32 1.097 63.269 1.463 97.28 1.829 116.663-17.189 16.457-15.726 27.063-48.274 33.646-104.594h-200.046c-14.994 0-27.429-12.434-27.429-27.429s12.434-27.429 27.429-27.429h201.143c1.097 0 1.829 0.366 2.926 0.731 2.194-37.303 2.926-81.554 2.926-134.583 0-2.56 0.366-5.12 1.097-7.68 0.366-1.463 1.097-3.291-1.097-5.851z" />
<glyph unicode="&#xe907;" glyph-name="carro" d="M258.194 363.52v-65.829c0-14.994-12.434-27.429-27.429-27.429s-27.429 12.434-27.429 27.429v65.829c0 14.994 12.434 27.429 27.429 27.429s27.429-12.434 27.429-27.429zM793.234 390.949c-14.994 0-27.429-12.434-27.429-27.429v-65.829c0-14.994 12.434-27.429 27.429-27.429s27.429 12.434 27.429 27.429v65.829c0 14.994-12.434 27.429-27.429 27.429zM931.474 513.829h-30.72l39.863-80.091c1.829-3.657 2.926-8.046 2.926-12.434v-193.097c0-1.097-0.366-1.829-0.366-2.926 0-0.366 0.366-0.731 0.366-1.097v-91.429c0-36.937-34.743-67.291-77.531-67.291h-76.069c-42.789 0-77.531 29.989-77.531 67.291v44.983c-70.949-6.583-147.383-12.069-205.531-12.069-56.686 0-128.731 5.12-196.023 11.703v-44.251c0-36.937-34.743-67.291-77.531-67.291h-75.703c-42.789 0-77.531 29.989-77.531 67.291v91.429c0 0.731 0.366 1.463 0.366 2.194s-0.366 1.097-0.366 1.829v193.097c0 4.389 1.097 8.411 2.926 12.434l39.863 80.091h-30.354c-14.994 0-27.429 12.434-27.429 27.429s12.434 27.429 27.429 27.429h51.931l59.977 216.869c2.56 9.509 10.606 16.823 20.114 19.017 4.389 1.097 108.251 25.234 284.16 25.234 175.543 0 285.989-24.137 290.377-25.234 9.874-2.194 17.92-9.509 20.48-19.383l59.977-216.869h51.931c14.994 0 27.429-12.434 27.429-27.429s-12.434-27.429-27.429-27.429zM195.291 547.109c49.737-6.583 159.086-18.651 312.32-18.651 154.697 0 269.531 12.069 320.731 18.651l-57.417 206.994c-36.206 6.583-130.926 20.846-262.583 20.846-130.56 0-221.257-14.263-255.634-20.48l-57.417-207.36zM256 182.857c-49.737 5.486-93.257 10.606-120.686 14.263v-64c0-4.754 9.143-12.434 22.674-12.434h75.703c13.531 0 22.674 7.314 22.674 12.434v49.737zM507.246 220.526c116.663 0 313.783 23.406 381.44 31.817v162.743l-39.863 79.726c-44.983-6.217-167.131-20.846-341.211-20.846-172.617 0-288.914 14.263-332.434 20.846l-39.863-79.726v-162.743c66.194-8.411 255.634-31.817 371.931-31.817zM888.32 133.12v64c-27.794-3.291-70.949-8.777-120.686-13.897v-50.469c0-4.754 9.143-12.434 22.674-12.434h75.703c13.531 0.366 22.309 7.68 22.309 12.8zM652.434 355.84h-281.234c-14.994 0-27.429-12.434-27.429-27.429s12.434-27.429 27.429-27.429h281.234c14.994 0 27.429 12.434 27.429 27.429s-12.069 27.429-27.429 27.429z" />
<glyph unicode="&#xe908;" glyph-name="casa" d="M949.394 478.72l-420.206 341.211c-10.24 8.046-24.503 8.046-34.743 0l-419.84-341.211c-11.703-9.509-13.531-26.697-4.023-38.766 9.509-11.703 26.697-13.531 38.766-4.023l86.674 70.217v-409.234c0-14.994 12.434-27.429 27.429-27.429h183.954c14.994 0 27.429 12.434 27.429 27.429v181.76h155.063v-181.76c0-14.994 12.434-27.429 27.429-27.429h183.954c14.994 0 27.429 12.434 27.429 27.429v409.6l86.674-70.217c5.12-4.023 11.337-6.217 17.189-6.217 8.046 0 15.726 3.291 21.211 10.24 9.143 11.337 7.314 28.891-4.389 38.4zM773.486 124.709h-129.097v181.76c0 14.994-12.434 27.429-27.429 27.429h-209.92c-14.994 0-27.429-12.434-27.429-27.429v-181.76h-129.097v426.423l261.486 212.114 261.486-212.48v-426.057z" />
<glyph unicode="&#xe909;" glyph-name="casco" d="M936.229 332.8h-93.623v133.486c0 196.754-148.114 356.571-330.606 356.571s-330.606-159.817-330.606-356.571v-133.486h-93.623c-14.994 0-27.429-12.434-27.429-27.429v-204.8c0-14.994 12.434-27.429 27.429-27.429h848.457c14.994 0 27.429 12.434 27.429 27.429v204.8c0 14.994-12.434 27.429-27.429 27.429zM236.251 466.286c0 106.423 50.834 200.046 126.903 253.806v-122.149c0-14.994 12.434-27.429 27.429-27.429s27.429 12.434 27.429 27.429v151.771c29.257 11.703 60.709 18.286 93.623 18.286s64.366-6.583 93.623-18.286v-151.771c0-14.994 12.434-27.429 27.429-27.429s27.429 12.434 27.429 27.429v122.149c76.069-53.76 126.903-147.383 126.903-253.806v-133.486h-550.766v133.486zM908.8 128h-793.6v149.943h793.6v-149.943z" />
<glyph unicode="&#xe90a;" glyph-name="check" d="M908.434 741.669c-48.64 48.64-127.269 48.64-175.909 0l-323.291-323.291-117.76 117.394c-48.64 48.64-127.269 48.64-175.909 0s-48.64-127.269 0-175.909l205.531-205.531c24.137-24.137 55.954-36.206 87.771-36.206s63.634 12.069 87.771 36.206l411.063 411.429c23.406 23.406 36.571 54.857 36.571 87.771 0.366 33.28-12.434 64.366-35.84 88.137zM869.669 604.526l-411.429-411.429c-27.063-27.063-71.314-27.063-98.377 0l-205.531 205.531c-27.063 27.063-27.063 71.314 0 98.377 13.531 13.531 31.451 20.48 49.006 20.48 17.92 0 35.474-6.949 49.006-20.48l137.143-137.143c10.606-10.606 28.16-10.606 38.766 0l342.674 342.674c27.063 27.063 71.314 27.063 98.377 0 13.166-13.166 20.48-30.72 20.48-49.006 0-18.651-6.949-35.84-20.114-49.006z" />
<glyph unicode="&#xe90b;" glyph-name="corazon" d="M900.389 731.063c-91.429 111.177-256.366 126.903-367.543 35.474l-20.846-17.554-12.069 10.971c-107.52 96.183-272.823 87.406-369.006-19.749s-87.040-272.457 19.749-368.64l329.143-295.131c5.12-4.754 11.703-6.949 18.286-6.949 6.217 0 12.434 2.194 17.554 6.217l349.257 287.817c53.76 44.251 87.040 107.154 93.989 176.64s-14.263 137.143-58.514 190.903zM829.806 405.577l-330.971-272.823-311.589 279.406c-84.48 76.069-91.429 206.629-15.726 291.474 40.594 45.349 96.914 68.389 153.6 68.389 49.006 0 98.377-17.189 137.509-52.663l29.623-26.697c10.24-9.143 25.234-9.509 35.84-0.731l39.131 32.183c87.771 72.411 217.966 59.611 290.377-27.794 35.109-42.423 51.566-96.183 46.080-151.040s-31.086-104.594-73.874-139.703zM826.514 525.166c0-14.994-12.434-27.429-27.429-27.429s-27.429 12.434-27.429 27.429c0 63.634-51.931 115.566-115.566 115.566-14.994 0-27.429 12.434-27.429 27.429s12.434 27.429 27.429 27.429c93.989-0.366 170.423-76.8 170.423-170.423z" />
<glyph unicode="&#xe90c;" glyph-name="cruz" d="M923.429 592.823h-266.606v266.606c0 14.994-12.434 27.429-27.429 27.429h-235.154c-14.994 0-27.429-12.434-27.429-27.429v-266.606h-266.24c-14.994 0-27.429-12.069-27.429-27.429v-235.154c0-14.994 12.434-27.429 27.429-27.429h266.606v-266.606c0-14.994 12.434-27.429 27.429-27.429h235.154c14.994 0 27.429 12.434 27.429 27.429v266.606h266.606c14.994 0 27.429 12.434 27.429 27.429v235.154c-0.366 15.36-12.8 27.429-27.794 27.429zM896 358.034h-266.606c-14.994 0-27.429-12.434-27.429-27.429v-266.606h-180.297v266.606c0 14.994-12.434 27.429-27.429 27.429h-266.24v180.297h266.606c14.994 0 27.429 12.434 27.429 27.429v266.24h180.297v-266.606c0-14.994 12.434-27.429 27.429-27.429h266.606v-179.931z" />
<glyph unicode="&#xe90d;" glyph-name="documento" d="M824.686 600.869c-1.463 3.291-3.291 6.217-5.851 8.777 0 0 0 0 0 0l-246.491 243.566c-4.023 9.874-13.897 16.823-25.234 16.823-0.366 0-1.097-0.366-1.463-0.366s-1.097 0.366-1.463 0.366h-292.571c-29.989 0-54.491-24.503-54.491-54.491v-735.086c0-29.989 24.503-54.491 54.491-54.491h520.777c29.989 0 54.491 24.503 54.491 54.491v509.806c0 3.657-0.731 7.314-2.194 10.606zM574.537 773.851l158.354-156.16h-158.354v156.16zM251.977 80.457l-0.366 734.72h268.069v-224.914c0-14.994 12.434-27.429 27.429-27.429h224.914l0.366-482.011-520.411-0.366z" />
<glyph unicode="&#xe90e;" glyph-name="edificio" d="M419.84 554.789c-14.994 0-27.429 12.434-27.429 27.429v83.749c0 14.994 12.434 27.429 27.429 27.429s27.429-12.434 27.429-27.429v-83.749c0-15.36-12.434-27.429-27.429-27.429zM604.16 554.789c-14.994 0-27.429 12.434-27.429 27.429v83.749c0 14.994 12.434 27.429 27.429 27.429s27.429-12.434 27.429-27.429v-83.749c0-15.36-12.434-27.429-27.429-27.429zM419.84 336.823c-14.994 0-27.429 12.434-27.429 27.429v83.749c0 14.994 12.434 27.429 27.429 27.429s27.429-12.434 27.429-27.429v-83.749c0-15.36-12.434-27.429-27.429-27.429zM604.16 336.823c-14.994 0-27.429 12.434-27.429 27.429v83.749c0 14.994 12.434 27.429 27.429 27.429s27.429-12.434 27.429-27.429v-83.749c0-15.36-12.434-27.429-27.429-27.429zM805.303 18.286h-178.469c-14.994 0-27.429 12.434-27.429 27.429v156.891h-165.303v-156.891c0-14.994-12.434-27.429-27.429-27.429h-187.977c-14.994 0-27.429 12.434-27.429 27.429v737.646c0 12.8 8.777 23.771 21.211 26.697l292.937 66.926c4.023 1.097 8.046 1.097 12.069 0l293.669-66.926c12.434-2.926 21.211-13.897 21.211-26.697v-737.646c0.366-14.994-12.069-27.429-27.063-27.429zM654.263 73.143h123.611v688.274l-266.24 60.709-265.509-60.709v-688.274h133.486v156.891c0 14.994 12.434 27.429 27.429 27.429h220.16c14.994 0 27.429-12.434 27.429-27.429v-156.891z" />
<glyph unicode="&#xe90f;" glyph-name="ejecutivo" d="M963.291 67.657c-64.731 129.463-187.246 220.16-332.8 251.977 96.914 45.714 164.206 145.189 164.206 260.754 0 158.72-126.903 287.817-283.063 287.817s-282.697-129.097-282.697-287.817c0-115.566 67.657-215.040 164.206-260.754-145.554-32.183-267.703-122.514-332.8-251.977-6.217-13.531-0.731-29.989 12.8-36.937 4.023-1.829 8.046-2.926 12.434-2.926 9.874 0 19.749 5.486 24.503 14.994 69.486 138.606 213.577 226.743 379.977 234.057v-194.56c0-14.994 12.434-27.429 27.429-27.429s27.429 12.434 27.429 27.429v194.56c162.011-10.24 301.714-98.011 369.737-233.691 6.949-13.531 23.406-19.017 36.937-12.069 13.166 6.583 18.651 23.040 11.703 36.571zM284.16 580.389c0 128.366 102.4 232.96 227.84 232.96 125.806 0 228.206-104.594 228.206-232.96s-102.4-232.96-228.206-232.96c-125.806 0.366-227.84 104.594-227.84 232.96z" />
<glyph unicode="&#xe910;" glyph-name="empresa" d="M420.571 327.314c-14.629 0-29.257 10.971-29.257 29.257v73.143c0 14.629 10.971 29.257 29.257 29.257s29.257-10.971 29.257-29.257v-73.143c0-14.629-14.629-29.257-29.257-29.257zM241.371 327.314c-14.629 0-29.257 10.971-29.257 29.257v73.143c0 14.629 10.971 29.257 29.257 29.257s29.257-10.971 29.257-29.257v-73.143c-3.657-14.629-14.629-29.257-29.257-29.257zM603.429 327.314c-14.629 0-29.257 10.971-29.257 29.257v73.143c0 14.629 10.971 29.257 29.257 29.257s29.257-10.971 29.257-29.257v-73.143c-3.657-14.629-14.629-29.257-29.257-29.257zM782.629 327.314c-14.629 0-29.257 10.971-29.257 29.257v73.143c0 14.629 10.971 29.257 29.257 29.257s29.257-10.971 29.257-29.257v-73.143c0-14.629-14.629-29.257-29.257-29.257zM939.886 53.029h-281.6c-14.629 0-29.257 10.971-29.257 29.257v131.657h-226.743v-131.657c0-14.629-10.971-29.257-29.257-29.257h-288.914c-14.629 0-29.257 10.971-29.257 29.257v482.743c0 14.629 10.971 29.257 29.257 29.257h292.571v58.514c0 10.971 7.314 21.943 18.286 25.6l142.629 62.171c7.314 0 18.286 0 25.6-7.314 7.314-3.657 10.971-14.629 10.971-21.943l3.657-120.686h91.429v160.914c0 10.971 7.314 21.943 14.629 25.6l146.286 65.829c7.314 3.657 18.286 3.657 25.6-3.657 7.314-3.657 10.971-14.629 10.971-21.943v-226.743h69.486c14.629 0 29.257-10.971 29.257-29.257v-482.743c0-14.629-10.971-25.6-25.6-25.6zM687.543 107.886h226.743v427.886h-73.143c-14.629 0-29.257 10.971-29.257 29.257v208.457l-91.429-40.229v-168.229c0-14.629-10.971-29.257-29.257-29.257h-146.286c-14.629 0-25.6 10.971-29.257 25.6l-3.657 106.057-91.429-36.571v-69.486c0-14.629-10.971-25.6-29.257-25.6h-292.571v-431.543h234.057v131.657c0 14.629 10.971 29.257 29.257 29.257h296.229c14.629 0 29.257-10.971 29.257-29.257v-128z" />
<glyph unicode="&#xe911;" glyph-name="escudo-dinero" d="M875.52 792.503c-5.12 5.12-12.069 8.046-19.383 8.046-31.451 0-74.971 17.92-121.051 36.937-66.194 27.429-141.531 58.514-223.817 58.514s-156.891-31.086-222.72-58.514c-45.714-19.017-88.869-36.937-120.686-36.937-14.994 0-27.429-12.434-27.429-27.429v-449.097c0-218.331 349.257-318.903 364.251-322.926 2.56-0.731 4.754-1.097 7.314-1.097 2.926 0 5.486 0.366 8.411 1.463 14.994 4.754 363.154 118.857 363.154 322.56v449.097c0 7.314-2.926 14.263-8.046 19.383zM828.709 324.023c0-132.023-221.623-235.52-317.074-267.703-49.371 15.36-316.343 106.423-316.343 267.703v424.229c34.743 5.851 72.046 21.211 114.103 38.766 61.074 25.234 130.56 54.126 201.874 54.126s141.166-28.891 202.606-54.126c42.057-17.554 79.726-32.914 114.469-38.766v-424.229zM527.726 472.137c-75.337 27.794-80.823 46.080-80.823 73.143 0 20.846 8.411 56.32 64.366 56.32 45.349 0 68.389-23.771 68.389-70.583 0-14.994 12.434-27.429 27.429-27.429 0 0 0 0 0 0 14.994 0 27.429 12.434 27.429 27.429-0.366 53.76-25.966 110.446-95.086 122.88v50.103c0 14.994-12.434 27.429-27.429 27.429s-27.429-12.434-27.429-27.429v-49.737c-63.634-10.606-92.526-59.977-92.526-108.617 0-68.389 42.789-97.646 116.663-124.709 73.509-27.063 78.994-48.64 78.994-78.263 0-27.429-7.68-63.634-73.874-63.634-66.56 0-76.8 46.811-77.166 74.606 0 14.994-12.434 27.063-27.429 27.063 0 0 0 0-0.366 0-14.994 0-27.429-12.434-27.063-27.794 0.731-68.389 40.229-115.566 103.131-126.537v-34.377c0-14.994 12.434-27.429 27.429-27.429s27.429 12.434 27.429 27.429v34.011c65.097 8.777 103.131 50.834 103.131 116.663-0.366 72.411-44.251 103.131-115.2 129.463z" />
<glyph unicode="&#xe912;" glyph-name="fuego" d="M782.994 539.063c-58.514 75.703-125.074 161.646-112.274 225.646 5.851 28.526 27.063 53.029 65.097 74.971 11.703 6.583 16.823 20.846 12.069 33.646-4.754 12.434-17.92 19.749-31.451 17.189-10.24-2.194-253.44-55.954-340.48-228.571-0.366-0.731-0.731-1.097-0.731-1.829-41.326 43.886-119.589 57.417-171.886 57.417-10.971 0-21.211-6.583-25.234-16.823s-1.829-21.943 5.851-29.989c58.149-58.149 39.863-110.080 0-204.069-15.36-36.206-31.451-73.874-41.691-115.931-16.823-67.657-0.731-135.68 46.446-196.389 70.583-90.697 198.583-149.211 326.217-149.211 205.897 0 373.394 152.137 373.394 339.017 0 58.88-51.2 125.074-105.326 194.926zM514.926 59.977c-109.349 0-223.086 51.566-283.063 128-25.6 32.549-52.663 85.211-36.571 149.577 9.509 37.669 24.503 73.143 39.131 107.52 29.623 69.486 59.611 140.8 27.063 210.651 40.594-8.411 87.406-27.429 87.406-69.486 0-2.194 0.366-4.754 0.731-6.949-10.606-65.097 1.463-136.046 36.206-212.114 6.217-13.897 22.674-19.749 36.206-13.531 13.897 6.217 19.749 22.674 13.531 36.206-42.423 93.257-46.080 176.274-10.606 246.491 41.691 82.651 129.463 134.949 200.046 165.303-3.291-8.411-6.217-17.189-8.046-26.331-17.554-88.503 53.76-180.663 122.514-269.897 46.080-59.611 93.989-121.417 93.989-161.28 0-156.526-142.994-284.16-318.537-284.16z" />
<glyph unicode="&#xe913;" glyph-name="hotel" d="M539.429 389.851v-80.091c0-14.994-12.434-27.429-27.429-27.429s-27.429 12.434-27.429 27.429v80.091c0 14.994 12.434 27.429 27.429 27.429s27.429-12.434 27.429-27.429zM322.194 417.28c-14.994 0-27.429-12.434-27.429-27.429v-80.091c0-14.994 12.434-27.429 27.429-27.429s27.429 12.434 27.429 27.429v80.091c0 14.994-12.069 27.429-27.429 27.429zM720.091 417.28c-14.994 0-27.429-12.434-27.429-27.429v-80.091c0-14.994 12.434-27.429 27.429-27.429s27.429 12.434 27.429 27.429v80.091c0 14.994-12.434 27.429-27.429 27.429zM512 600.137c-14.994 0-27.429-12.434-27.429-27.429v-80.091c0-14.994 12.434-27.429 27.429-27.429s27.429 12.434 27.429 27.429v80.091c0 14.994-12.434 27.429-27.429 27.429zM322.194 600.137c-14.994 0-27.429-12.434-27.429-27.429v-80.091c0-14.994 12.434-27.429 27.429-27.429s27.429 12.434 27.429 27.429v80.091c0 14.994-12.069 27.429-27.429 27.429zM720.091 600.137c-14.994 0-27.429-12.434-27.429-27.429v-80.091c0-14.994 12.434-27.429 27.429-27.429s27.429 12.434 27.429 27.429v80.091c0 14.994-12.434 27.429-27.429 27.429zM892.709 709.851v-667.429c0-14.994-12.434-27.429-27.429-27.429h-206.994c-14.994 0-27.429 12.434-27.429 27.429v111.909h-228.206v-111.909c0-14.994-12.434-27.429-27.429-27.429h-216.503c-14.994 0-27.429 12.434-27.429 27.429v667.429c0 14.994 12.434 27.429 27.429 27.429h114.103v116.297c0 14.994 12.434 27.429 27.429 27.429h438.857c14.994 0 27.429-12.434 27.429-27.429v-116.663h98.377c15.36 0.366 27.794-12.069 27.794-27.063zM837.851 682.423h-98.377c-14.994 0-27.429 12.434-27.429 27.429v116.297h-384v-116.663c0-14.994-12.434-27.429-27.429-27.429h-114.469v-612.571h161.28v111.909c0 14.994 12.434 27.429 27.429 27.429h283.429c14.994 0 27.429-12.434 27.429-27.429v-111.909h152.137v612.937zM611.474 734.72h-182.857c-14.994 0-27.429-12.434-27.429-27.429s12.434-27.429 27.429-27.429h182.857c14.994 0 27.429 12.434 27.429 27.429s-12.434 27.429-27.429 27.429z" />
<glyph unicode="&#xe914;" glyph-name="obrero" d="M947.2 42.423c-62.171 123.977-178.834 211.017-318.171 242.469 92.16 44.617 156.16 140.069 156.16 250.88 0 3.657-0.731 6.949-2.194 10.24h16.457c14.994 0 27.429 12.434 27.429 27.429 0 176.64-141.166 320.366-314.88 320.366s-314.88-143.726-314.88-320.366c0-14.994 12.434-27.429 27.429-27.429h16.457c-1.097-3.291-2.194-6.583-2.194-10.24 0-110.446 64-205.897 156.16-250.88-139.337-31.451-256-118.491-318.171-242.469-6.949-13.531-1.463-29.989 12.069-36.937 13.531-6.583 29.989-1.463 36.937 12.069 66.56 132.754 204.8 216.503 363.886 223.817v-163.474c0-14.994 12.434-27.429 27.429-27.429s27.429 12.434 27.429 27.429v162.743c154.697-10.606 288.549-93.257 353.646-223.451 4.754-9.509 14.629-14.994 24.503-14.994 4.023 0 8.411 1.097 12.069 2.926 13.897 7.314 19.383 23.771 12.434 37.303zM512 838.583c134.217 0 245.394-104.594 258.56-238.080h-517.12c13.166 133.486 124.343 238.080 258.56 238.080zM293.669 535.406c0 3.657-0.731 6.949-2.194 10.24h441.051c-1.097-3.291-2.194-6.583-2.194-10.24 0-122.88-98.011-223.086-218.331-223.086s-218.331 100.206-218.331 223.086z" />
<glyph unicode="&#xe915;" glyph-name="persona" d="M963.291 67.657c-64.731 129.463-187.246 220.16-332.8 251.977 96.914 45.714 164.206 145.189 164.206 260.754 0 158.72-126.903 287.817-283.063 287.817s-282.697-129.097-282.697-287.817c0-115.566 67.657-215.040 164.206-260.754-145.554-32.183-267.703-122.514-332.8-251.977-6.217-13.531-0.731-29.989 12.8-36.937 4.023-1.829 8.046-2.926 12.434-2.926 9.874 0 19.749 5.486 24.503 14.994 72.411 144.823 226.743 234.789 402.286 234.789s329.509-89.966 402.286-234.789c6.949-13.531 23.406-19.017 36.937-12.069 13.166 6.949 18.651 23.406 11.703 36.937zM284.16 580.389c0 128.366 102.4 232.96 227.84 232.96 125.806 0 228.206-104.594 228.206-232.96s-102.4-232.96-228.206-232.96c-125.806 0.366-227.84 104.594-227.84 232.96z" />
<glyph unicode="&#xe916;" glyph-name="personas" d="M975.36 112.64c-37.669 75.337-105.691 129.463-187.611 154.331 50.834 33.646 84.846 91.429 84.846 157.623 0 103.497-83.017 187.977-185.051 187.977-93.623 0-170.789-71.68-182.491-163.474-21.211 12.069-43.886 21.943-67.657 28.891 50.469 33.646 84.114 91.429 84.114 157.257 0 103.497-83.017 187.977-185.051 187.977s-185.051-84.48-185.051-187.977c0-66.194 34.011-123.977 84.48-157.623-83.383-24.869-149.577-78.994-187.611-154.331-6.949-13.531-1.463-29.989 12.069-36.937 4.389-1.829 8.777-2.926 12.8-2.926 9.874 0 19.749 5.486 24.503 14.994 33.28 66.56 93.623 113.006 170.057 131.291 11.337 2.56 22.674 4.389 34.011 5.851v-97.28c0-14.994 12.434-27.429 27.429-27.429s27.429 12.434 27.429 27.429v98.743c53.394-3.657 104.594-21.211 146.286-52.297 1.463-1.097 2.926-1.463 4.389-2.194 10.971-48.274 39.863-89.6 79.726-115.931-81.92-24.869-149.943-78.994-187.611-154.331-6.949-13.531-1.463-29.989 12.069-36.937 4.023-1.829 8.046-2.926 12.434-2.926 9.874 0 19.749 5.486 24.503 14.994 42.789 85.943 134.583 138.971 238.811 138.971s195.657-53.394 238.811-138.971c6.949-13.531 23.406-19.017 36.937-12.069 13.897 7.314 19.383 23.771 12.434 37.303zM336.457 768.366c71.68 0 130.194-59.611 130.194-133.12s-58.514-133.12-130.194-133.12-130.194 59.611-130.194 133.12 58.514 133.12 130.194 133.12zM687.543 557.714c71.68 0 130.194-59.611 130.194-133.12s-58.514-133.12-130.194-133.12-130.194 59.611-130.194 133.12c0 73.143 58.514 133.12 130.194 133.12z" />
<glyph unicode="&#xe917;" glyph-name="tarjeta" d="M187.977 602.331c0 14.994 12.434 27.429 27.429 27.429h260.754c14.994 0 27.429-12.434 27.429-27.429s-12.434-27.429-27.429-27.429h-260.754c-14.994 0-27.429 12.069-27.429 27.429zM784.823 392.411h-118.491c-14.994 0-27.429-12.434-27.429-27.429s12.434-27.429 27.429-27.429h118.491c14.994 0 27.429 12.434 27.429 27.429s-12.434 27.429-27.429 27.429zM571.246 392.411h-355.84c-14.994 0-27.429-12.434-27.429-27.429s12.434-27.429 27.429-27.429h355.84c14.994 0 27.429 12.434 27.429 27.429s-12.069 27.429-27.429 27.429zM452.754 297.326h-237.349c-14.994 0-27.429-12.434-27.429-27.429s12.434-27.429 27.429-27.429h237.349c14.994 0 27.429 12.434 27.429 27.429s-12.434 27.429-27.429 27.429zM978.286 698.88v-501.76c0-53.394-43.52-96.914-96.914-96.914h-738.743c-53.394 0-96.914 43.52-96.914 96.914v501.76c0 53.394 43.52 96.914 96.914 96.914h738.743c53.394 0 96.914-43.52 96.914-96.914zM923.429 698.88c0 23.040-18.651 42.057-42.057 42.057h-738.743c-23.040 0-42.057-18.651-42.057-42.057v-501.76c0-23.040 18.651-42.057 42.057-42.057h738.743c23.040 0 42.057 18.651 42.057 42.057v501.76zM808.594 649.509c-26.331 0-47.543-21.211-47.543-47.543s21.211-47.543 47.543-47.543 47.543 21.211 47.543 47.543-21.577 47.543-47.543 47.543z" />
<glyph unicode="&#xe918;" glyph-name="tractor" d="M844.8 111.543h-665.6c-32.914 0-62.171 25.6-62.171 62.171v252.343c0 54.857 43.886 95.086 95.086 95.086h14.629c0 54.857 43.886 95.086 95.086 95.086h373.029c54.857 0 95.086-43.886 98.743-95.086h10.971c25.6 0 51.2-10.971 69.486-29.257s29.257-43.886 29.257-69.486v-252.343c0-29.257-25.6-58.514-58.514-58.514zM215.771 469.943c-21.943 0-40.229-18.286-40.229-40.229v-252.343c0-3.657 3.657-7.314 7.314-7.314h665.6c3.657 0 7.314 3.657 7.314 7.314v252.343c0 10.971-3.657 21.943-10.971 29.257s-18.286 10.971-29.257 10.971h-47.543c-14.629 0-29.257 10.971-29.257 29.257v25.6c0 21.943-18.286 43.886-43.886 43.886h-369.371c-21.943 0-40.229-18.286-40.229-43.886v-25.6c0-14.629-10.971-29.257-29.257-29.257h-40.229zM256 254.171c-14.629 0-29.257 10.971-29.257 29.257v69.486c0 14.629 10.971 29.257 29.257 29.257s29.257-10.971 29.257-29.257v-69.486c0-14.629-14.629-29.257-29.257-29.257zM219.429 473.6c-14.629 0-29.257 10.971-29.257 29.257v358.4c0 14.629 10.971 29.257 29.257 29.257s29.257-10.971 29.257-29.257v-362.057c0-10.971-14.629-25.6-29.257-25.6zM768 254.171c-14.629 0-29.257 10.971-29.257 29.257v69.486c0 14.629 10.971 29.257 29.257 29.257s29.257-10.971 29.257-29.257v-69.486c0-14.629-14.629-29.257-29.257-29.257zM804.571 473.6c-14.629 0-29.257 10.971-29.257 29.257v358.4c0 14.629 10.971 29.257 29.257 29.257s29.257-10.971 29.257-29.257v-362.057c0-10.971-14.629-25.6-29.257-25.6zM621.714 287.086h-219.429c-14.629 0-29.257 10.971-29.257 29.257s10.971 29.257 29.257 29.257h219.429c14.629 0 29.257-10.971 29.257-29.257s-14.629-29.257-29.257-29.257zM621.714 396.8h-219.429c-14.629 0-29.257 10.971-29.257 29.257s10.971 29.257 29.257 29.257h219.429c14.629 0 29.257-10.971 29.257-29.257s-14.629-29.257-29.257-29.257zM277.943 5.486h-80.457c-43.886 0-80.457 29.257-80.457 69.486v131.657c0 14.629 10.971 29.257 29.257 29.257s29.257-10.971 29.257-29.257v-131.657c0-7.314 10.971-14.629 25.6-14.629h80.457c14.629 0 25.6 7.314 25.6 14.629v58.514c0 14.629 10.971 29.257 29.257 29.257s29.257-10.971 29.257-29.257v-58.514c-7.314-40.229-43.886-69.486-87.771-69.486zM826.514 5.486h-80.457c-43.886 0-80.457 29.257-80.457 69.486v58.514c0 14.629 10.971 29.257 29.257 29.257s29.257-10.971 29.257-29.257v-58.514c0-7.314 10.971-14.629 25.6-14.629h80.457c14.629 0 25.6 7.314 25.6 14.629v131.657c0 14.629 10.971 29.257 29.257 29.257s29.257-10.971 29.257-29.257v-131.657c-7.314-40.229-43.886-69.486-87.771-69.486zM804.571 762.514h-585.143c-14.629 0-29.257 10.971-29.257 29.257s14.629 25.6 29.257 25.6h585.143c14.629 0 29.257-10.971 29.257-29.257s-14.629-25.6-29.257-25.6z" />
<glyph unicode="&#xe919;" glyph-name="virrete" d="M962.194 619.154l-438.857 201.143c-7.314 3.291-15.726 3.291-22.674 0l-438.857-201.143c-9.874-4.389-16.091-14.263-16.091-24.869s6.217-20.48 16.091-24.869l131.657-60.343c-0.366-2.194-1.097-4.023-1.097-6.217v-256c0-10.24 5.851-19.749 14.994-24.503l292.571-146.286c4.023-1.829 8.046-2.926 12.434-2.926s8.411 1.097 12.434 2.926l292.571 146.286c9.143 4.754 15.36 14.263 15.36 24.503v256c0 2.194-0.731 4.023-1.097 6.217l131.657 60.343c9.874 4.389 16.091 14.263 16.091 24.869s-7.314 20.48-17.189 24.869zM777.143 263.68l-265.143-132.389-265.143 132.389v220.891l253.806-116.297c3.657-1.829 7.68-2.56 11.337-2.56s7.68 0.731 11.337 2.56l144.091 65.829v-77.531c0-14.994 12.434-27.429 27.429-27.429s27.429 12.434 27.429 27.429v102.766l54.857 25.234v-220.891zM717.897 517.851c-2.56 4.023-6.217 7.314-10.606 9.874l-182.857 91.429c-13.531 6.583-29.989 1.097-36.937-12.434s-1.463-29.989 12.434-36.937l158.354-79.36-146.286-66.926-373.029 170.789 373.029 170.789 373.029-170.789-167.131-76.434z" />
<glyph unicode="&#xe91a;" glyph-name="play" horiz-adv-x="993" d="M59.658-64c-21.13 0-41.546 10.771-52.349 29.658-15.729 27.61-5.163 62.123 23.752 77.142l777.932 405.204-689.836 359.237v-586.795c0-31.403-26.691-56.889-59.578-56.889s-59.578 25.486-59.578 56.889v682.672c0 20.101 11.121 38.685 29.154 48.925 18.112 10.164 40.434 10.695 58.943 0.986l873.813-455.115c19.144-9.937 31.060-29.128 31.060-49.911s-11.916-39.974-31.060-49.911l-873.813-455.115c-9.056-4.779-18.827-6.978-28.439-6.978z" />
<glyph unicode="&#xe91b;" glyph-name="cerrar" horiz-adv-x="896" d="M840 805.761l-78.96 90.239-313.040-357.761-313.040 357.761-78.96-90.239 313.040-357.761-313.040-357.761 78.96-90.239 313.040 357.761 313.040-357.761 78.96 90.239-313.040 357.761z" />
<glyph unicode="&#xe91c;" glyph-name="calendar" horiz-adv-x="904" d="M800 832h-96v112c0 8.8-7.2 16-16 16h-32c-8.8 0-16-7.2-16-16v-112h-384v112c0 8.8-7.2 16-16 16h-32c-8.8 0-16-7.2-16-16v-112h-96c-53 0-96-43-96-96v-704c0-53 43-96 96-96h704c53 0 96 43 96 96v704c0 53-43 96-96 96zM832 32c0-17.6-14.4-32-32-32h-704c-17.6 0-32 14.4-32 32v544h768v-544zM832 640h-768v96c0 17.6 14.4 32 32 32h704c17.6 0 32-14.4 32-32v-96zM224 192h192c17.6 0 32 14.4 32 32v192c0 17.6-14.4 32-32 32h-192c-17.6 0-32-14.4-32-32v-192c0-17.6 14.4-32 32-32zM256 384h128v-128h-128v128z" />
<glyph unicode="&#xe91d;" glyph-name="control-add" d="M554.667 661.333h-85.333v-170.667h-170.667v-85.333h170.667v-170.667h85.333v170.667h170.667v85.333h-170.667v170.667zM512 874.667c-235.093 0-426.667-191.573-426.667-426.667s191.573-426.667 426.667-426.667 426.667 191.573 426.667 426.667-191.573 426.667-426.667 426.667zM512 106.667c-188.16 0-341.333 153.173-341.333 341.333s153.173 341.333 341.333 341.333 341.333-153.173 341.333-341.333-153.173-341.333-341.333-341.333z" />
<glyph unicode="&#xe91e;" glyph-name="account_circle" d="M512 874.667c-235.52 0-426.667-191.147-426.667-426.667s191.147-426.667 426.667-426.667 426.667 191.147 426.667 426.667-191.147 426.667-426.667 426.667zM512 746.667c70.827 0 128-57.173 128-128s-57.173-128-128-128-128 57.173-128 128 57.173 128 128 128zM512 140.8c-106.667 0-200.96 54.613-256 137.387 1.28 84.907 170.667 131.413 256 131.413 84.907 0 254.72-46.507 256-131.413-55.040-82.773-149.333-137.387-256-137.387z" />
<glyph unicode="&#xe91f;" glyph-name="btn-close" d="M622.507 618.667l-110.507-110.507-110.507 110.507-60.16-60.16 110.507-110.507-110.507-110.507 60.16-60.16 110.507 110.507 110.507-110.507 60.16 60.16-110.507 110.507 110.507 110.507-60.16 60.16zM512 874.667c-235.947 0-426.667-190.72-426.667-426.667s190.72-426.667 426.667-426.667 426.667 190.72 426.667 426.667-190.72 426.667-426.667 426.667zM512 106.667c-188.16 0-341.333 153.173-341.333 341.333s153.173 341.333 341.333 341.333 341.333-153.173 341.333-341.333-153.173-341.333-341.333-341.333z" />
<glyph unicode="&#xe920;" glyph-name="check-circle" d="M707.84 636.587l-281.173-281.173-153.173 152.747-60.16-60.16 213.333-213.333 341.333 341.333zM512 874.667c-235.52 0-426.667-191.147-426.667-426.667s191.147-426.667 426.667-426.667 426.667 191.147 426.667 426.667-191.147 426.667-426.667 426.667zM512 106.667c-188.587 0-341.333 152.747-341.333 341.333s152.747 341.333 341.333 341.333 341.333-152.747 341.333-341.333-152.747-341.333-341.333-341.333z" />
<glyph unicode="&#xe921;" glyph-name="copyright" d="M430.080 496.64c2.133 14.080 6.827 26.453 12.8 37.12s14.507 19.627 25.173 26.453c10.24 6.4 23.040 9.387 38.827 9.813 9.813-0.427 18.773-2.133 26.88-5.547 8.533-3.84 16.213-8.96 22.187-15.36s10.667-14.080 14.507-22.613 5.547-17.92 5.973-27.307h76.373c-0.853 20.053-4.693 38.4-11.947 55.040s-17.067 31.147-29.867 43.093-28.16 21.333-46.080 28.16-37.547 9.813-59.307 9.813c-27.733 0-52.053-4.693-72.533-14.507s-37.547-22.613-51.2-39.253-23.893-35.84-30.293-58.027-10.24-45.227-10.24-69.973v-11.52c0-24.747 3.413-47.787 9.813-69.973s16.64-41.387 30.293-57.6 30.72-29.44 51.2-38.827 44.8-14.507 72.533-14.507c20.053 0 38.827 3.413 56.32 9.813s32.853 15.36 46.080 26.88 23.893 24.747 31.573 40.107 12.373 31.573 12.8 49.067h-76.373c-0.427-8.96-2.56-17.067-6.4-24.747s-8.96-14.080-15.36-19.627-13.653-9.813-22.187-12.8c-8.107-2.987-16.64-3.84-25.6-4.267-15.36 0.427-28.16 3.413-37.973 9.813-10.667 6.827-19.2 15.787-25.173 26.453s-10.667 23.467-12.8 37.547-3.413 28.587-3.413 42.667v11.52c0 14.933 1.28 29.013 3.413 43.093zM512 874.667c-235.52 0-426.667-191.147-426.667-426.667s191.147-426.667 426.667-426.667 426.667 191.147 426.667 426.667-191.147 426.667-426.667 426.667zM512 106.667c-188.16 0-341.333 153.173-341.333 341.333s153.173 341.333 341.333 341.333 341.333-153.173 341.333-341.333-153.173-341.333-341.333-341.333z" />
<glyph unicode="&#xe922;" glyph-name="help" d="M469.333 192h85.333v85.333h-85.333v-85.333zM512 874.667c-235.52 0-426.667-191.147-426.667-426.667s191.147-426.667 426.667-426.667 426.667 191.147 426.667 426.667-191.147 426.667-426.667 426.667zM512 106.667c-188.16 0-341.333 153.173-341.333 341.333s153.173 341.333 341.333 341.333 341.333-153.173 341.333-341.333-153.173-341.333-341.333-341.333zM512 704c-94.293 0-170.667-76.373-170.667-170.667h85.333c0 46.933 38.4 85.333 85.333 85.333s85.333-38.4 85.333-85.333c0-85.333-128-74.667-128-213.333h85.333c0 96 128 106.667 128 213.333 0 94.293-76.373 170.667-170.667 170.667z" />
<glyph unicode="&#xe923;" glyph-name="relog" d="M511.573 874.667c-235.52 0-426.24-191.147-426.24-426.667s190.72-426.667 426.24-426.667c235.947 0 427.093 191.147 427.093 426.667s-191.147 426.667-427.093 426.667zM512 106.667c-188.587 0-341.333 152.747-341.333 341.333s152.747 341.333 341.333 341.333 341.333-152.747 341.333-341.333-152.747-341.333-341.333-341.333zM533.333 661.333h-64v-256l224-134.4 32 52.48-192 113.92z" />
<glyph unicode="&#xe924;" glyph-name="mail" d="M853.333 789.333h-682.667c-46.933 0-84.907-38.4-84.907-85.333l-0.427-512c0-46.933 38.4-85.333 85.333-85.333h682.667c46.933 0 85.333 38.4 85.333 85.333v512c0 46.933-38.4 85.333-85.333 85.333zM853.333 192h-682.667v426.667l341.333-213.333 341.333 213.333v-426.667zM512 490.667l-341.333 213.333h682.667l-341.333-213.333z" />
<glyph unicode="&#xe925;" glyph-name="phone" d="M282.453 499.627c61.44-120.747 160.427-219.307 281.173-281.173l93.867 93.867c11.52 11.52 28.587 15.36 43.52 10.24 47.787-15.787 99.413-24.32 152.32-24.32 23.467 0 42.667-19.2 42.667-42.667v-148.907c0-23.467-19.2-42.667-42.667-42.667-400.64 0-725.333 324.693-725.333 725.333 0 23.467 19.2 42.667 42.667 42.667h149.333c23.467 0 42.667-19.2 42.667-42.667 0-53.333 8.533-104.533 24.32-152.32 4.693-14.933 1.28-31.573-10.667-43.52l-93.867-93.867z" />
<glyph unicode="&#xe926;" glyph-name="smartphone" d="M725.333 916.907l-426.667 0.427c-46.933 0-85.333-38.4-85.333-85.333v-768c0-46.933 38.4-85.333 85.333-85.333h426.667c46.933 0 85.333 38.4 85.333 85.333v768c0 46.933-38.4 84.907-85.333 84.907zM725.333 149.333h-426.667v597.333h426.667v-597.333z" />
<glyph unicode="&#xe927;" glyph-name="burger" horiz-adv-x="1434" d="M1087.673 658.244h-754.406c-24.736 0-41.225 16.489-41.225 41.225s16.489 41.225 41.225 41.225h754.406c24.736 0 41.225-16.489 41.225-41.225s-20.612-41.225-41.225-41.225zM1087.673 406.775h-754.406c-24.736 0-41.225 16.489-41.225 41.225s16.489 41.225 41.225 41.225h754.406c24.736 0 41.225-16.489 41.225-41.225s-20.612-41.225-41.225-41.225zM1087.673 155.307h-754.406c-24.736 0-41.225 16.489-41.225 41.225s16.489 41.225 41.225 41.225h754.406c24.736 0 41.225-16.489 41.225-41.225s-20.612-41.225-41.225-41.225z" />
<glyph unicode="&#xe928;" glyph-name="user" horiz-adv-x="979" d="M287.91 688.607c15.523 0 27.165 11.643 27.165 27.165 0 65.973 85.376 124.184 155.229 124.184h31.045c69.853 0 155.229-58.211 155.229-124.184 0-15.523 11.643-27.165 27.165-27.165s27.165 11.643 27.165 27.165c-7.763 100.898-120.303 178.514-213.442 178.514h-31.045c-97.018 0-205.679-77.615-205.679-178.514 0-15.523 11.643-27.165 27.165-27.165zM897.187 59.925c0 3.88-23.285 73.733-112.541 93.138-27.165 3.88-135.826 38.808-197.919 58.211l11.643 97.018c0 0 0 0 0 3.88 50.45 31.045 89.258 77.615 89.258 135.826l15.523 194.037c0 15.523-7.763 27.165-23.285 27.165l-97.018 15.523c11.643 7.763 19.402 15.523 19.402 15.523 11.643 7.763 11.643 27.165 3.88 38.808-11.643 11.643-27.165 11.643-38.808 3.88 0 0-112.541-97.018-283.295-97.018-7.763 0-15.523-3.88-19.402-7.763-3.88-15.523-3.88-23.285-3.88-31.045l15.523-162.991c0-58.211 42.688-104.781 89.258-135.826l11.643-100.898c-23.285-7.763-54.33-15.523-89.258-27.165-42.688-11.643-93.138-23.285-108.661-27.165-89.258-19.402-112.541-89.258-112.541-93.138-3.88-15.523 3.88-27.165 15.523-34.927 3.88 0 3.88 0 7.763 0 11.643 0 23.285 7.763 27.165 19.402 0 0 15.523 46.569 73.733 58.211 19.402 3.88 65.973 19.402 116.423 34.927 31.045 11.643 65.973 19.402 89.258 27.165 11.643-11.643 42.688-31.045 85.376-31.045s73.733 19.402 85.376 31.045c46.569-15.523 174.634-54.33 205.679-62.094 58.211-11.643 73.733-54.33 73.733-58.211 3.88-11.643 15.523-19.402 27.165-19.402 3.88 0 3.88 0 7.763 0 11.643 3.88 19.402 19.402 15.523 34.927zM532.397 199.633c-7.763-7.763-27.165-15.523-50.45-15.523s-38.808 11.643-50.45 15.523l-7.763 81.496c23.285-7.763 42.688-11.643 58.211-11.643s38.808 3.88 58.211 11.643l-7.763-81.496zM481.947 323.816c-46.569 0-155.229 58.211-155.229 124.184l-11.643 135.826c100.898 7.763 178.514 42.688 228.964 69.853 0-11.643 11.643-23.285 23.285-27.165l81.496-11.643-11.643-170.754c-3.88-62.094-108.661-120.303-155.229-120.303z" />
<glyph unicode="&#xea50;" glyph-name="ctrl" d="M736.014 512c-8.908 0-17.77 3.698-24.096 10.928l-199.918 228.478-199.918-228.478c-11.636-13.3-31.856-14.65-45.154-3.010-13.3 11.638-14.648 31.854-3.010 45.154l224 256c6.076 6.944 14.854 10.928 24.082 10.928s18.006-3.984 24.082-10.928l224-256c11.638-13.3 10.292-33.516-3.010-45.154-6.070-5.312-13.582-7.918-21.058-7.918z" />
<glyph unicode="&#xea88;" glyph-name="google" d="M522.2 521.2v-175.6h290.4c-11.8-75.4-87.8-220.8-290.4-220.8-174.8 0-317.4 144.8-317.4 323.2s142.6 323.2 317.4 323.2c99.4 0 166-42.4 204-79l139 133.8c-89.2 83.6-204.8 134-343 134-283 0-512-229-512-512s229-512 512-512c295.4 0 491.6 207.8 491.6 500.2 0 33.6-3.6 59.2-8 84.8l-483.6 0.2z" />
<glyph unicode="&#xea8b;" glyph-name="google-plus" d="M325.8 502.6v-111.8h184.8c-7.4-48-55.8-140.6-184.8-140.6-111.2 0-202 92.2-202 205.8s90.8 205.8 202 205.8c63.4 0 105.6-27 129.8-50.2l88.4 85.2c-56.8 53-130.4 85.2-218.2 85.2-180.2-0.2-325.8-145.8-325.8-326s145.6-325.8 325.8-325.8c188 0 312.8 132.2 312.8 318.4 0 21.4-2.4 37.8-5.2 54h-307.6zM1024 512h-96v96h-96v-96h-96v-96h96v-96h96v96h96z" />
<glyph unicode="&#xea90;" glyph-name="facebook" d="M608 768h160v192h-160c-123.514 0-224-100.486-224-224v-96h-128v-192h128v-512h192v512h160l32 192h-192v96c0 17.346 14.654 32 32 32z" />
<glyph unicode="&#xea92;" glyph-name="instagram" d="M512 867.8c136.8 0 153-0.6 206.8-3 50-2.2 77-10.6 95-17.6 23.8-9.2 41-20.4 58.8-38.2 18-18 29-35 38.4-58.8 7-18 15.4-45.2 17.6-95 2.4-54 3-70.2 3-206.8s-0.6-153-3-206.8c-2.2-50-10.6-77-17.6-95-9.2-23.8-20.4-41-38.2-58.8-18-18-35-29-58.8-38.4-18-7-45.2-15.4-95-17.6-54-2.4-70.2-3-206.8-3s-153 0.6-206.8 3c-50 2.2-77 10.6-95 17.6-23.8 9.2-41 20.4-58.8 38.2-18 18-29 35-38.4 58.8-7 18-15.4 45.2-17.6 95-2.4 54-3 70.2-3 206.8s0.6 153 3 206.8c2.2 50 10.6 77 17.6 95 9.2 23.8 20.4 41 38.2 58.8 18 18 35 29 58.8 38.4 18 7 45.2 15.4 95 17.6 53.8 2.4 70 3 206.8 3zM512 960c-139 0-156.4-0.6-211-3-54.4-2.4-91.8-11.2-124.2-23.8-33.8-13.2-62.4-30.6-90.8-59.2-28.6-28.4-46-57-59.2-90.6-12.6-32.6-21.4-69.8-23.8-124.2-2.4-54.8-3-72.2-3-211.2s0.6-156.4 3-211c2.4-54.4 11.2-91.8 23.8-124.2 13.2-33.8 30.6-62.4 59.2-90.8 28.4-28.4 57-46 90.6-59 32.6-12.6 69.8-21.4 124.2-23.8 54.6-2.4 72-3 211-3s156.4 0.6 211 3c54.4 2.4 91.8 11.2 124.2 23.8 33.6 13 62.2 30.6 90.6 59s46 57 59 90.6c12.6 32.6 21.4 69.8 23.8 124.2 2.4 54.6 3 72 3 211s-0.6 156.4-3 211c-2.4 54.4-11.2 91.8-23.8 124.2-12.6 34-30 62.6-58.6 91-28.4 28.4-57 46-90.6 59-32.6 12.6-69.8 21.4-124.2 23.8-54.8 2.6-72.2 3.2-211.2 3.2v0zM512 711c-145.2 0-263-117.8-263-263s117.8-263 263-263 263 117.8 263 263c0 145.2-117.8 263-263 263zM512 277.4c-94.2 0-170.6 76.4-170.6 170.6s76.4 170.6 170.6 170.6c94.2 0 170.6-76.4 170.6-170.6s-76.4-170.6-170.6-170.6zM846.8 721.4c0-33.91-27.49-61.4-61.4-61.4s-61.4 27.49-61.4 61.4c0 33.91 27.49 61.4 61.4 61.4s61.4-27.49 61.4-61.4z" />
<glyph unicode="&#xea93;" glyph-name="whatsapp" d="M873 811.2c-95.8 96-223.2 148.8-359 148.8-279.6 0-507.2-227.6-507.2-507.4 0-89.4 23.4-176.8 67.8-253.6l-72-263 269 70.6c74.2-40.4 157.6-61.8 242.4-61.8h0.2c0 0 0 0 0 0 279.6 0 507.4 227.6 507.4 507.4 0 135.6-52.8 263-148.6 359zM514.2 30.4v0c-75.8 0-150 20.4-214.8 58.8l-15.4 9.2-159.6-41.8 42.6 155.6-10 16c-42.4 67-64.6 144.6-64.6 224.4 0 232.6 189.2 421.8 422 421.8 112.6 0 218.6-44 298.2-123.6 79.6-79.8 123.4-185.6 123.4-298.4-0.2-232.8-189.4-422-421.8-422zM745.4 346.4c-12.6 6.4-75 37-86.6 41.2s-20 6.4-28.6-6.4c-8.4-12.6-32.8-41.2-40.2-49.8-7.4-8.4-14.8-9.6-27.4-3.2s-53.6 19.8-102 63c-37.6 33.6-63.2 75.2-70.6 87.8s-0.8 19.6 5.6 25.8c5.8 5.6 12.6 14.8 19 22.2s8.4 12.6 12.6 21.2c4.2 8.4 2.2 15.8-1 22.2s-28.6 68.8-39 94.2c-10.2 24.8-20.8 21.4-28.6 21.8-7.4 0.4-15.8 0.4-24.2 0.4s-22.2-3.2-33.8-15.8c-11.6-12.6-44.4-43.4-44.4-105.8s45.4-122.6 51.8-131.2c6.4-8.4 89.4-136.6 216.6-191.4 30.2-13 53.8-20.8 72.2-26.8 30.4-9.6 58-8.2 79.8-5 24.4 3.6 75 30.6 85.6 60.2s10.6 55 7.4 60.2c-3 5.6-11.4 8.8-24.2 15.2z" />
<glyph unicode="&#xea96;" glyph-name="twitter" d="M1024 733.6c-37.6-16.8-78.2-28-120.6-33 43.4 26 76.6 67.2 92.4 116.2-40.6-24-85.6-41.6-133.4-51-38.4 40.8-93 66.2-153.4 66.2-116 0-210-94-210-210 0-16.4 1.8-32.4 5.4-47.8-174.6 8.8-329.4 92.4-433 219.6-18-31-28.4-67.2-28.4-105.6 0-72.8 37-137.2 93.4-174.8-34.4 1-66.8 10.6-95.2 26.2 0-0.8 0-1.8 0-2.6 0-101.8 72.4-186.8 168.6-206-17.6-4.8-36.2-7.4-55.4-7.4-13.6 0-26.6 1.4-39.6 3.8 26.8-83.4 104.4-144.2 196.2-146-72-56.4-162.4-90-261-90-17 0-33.6 1-50.2 3 93.2-59.8 203.6-94.4 322.2-94.4 386.4 0 597.8 320.2 597.8 597.8 0 9.2-0.2 18.2-0.6 27.2 41 29.4 76.6 66.4 104.8 108.6z" />
<glyph unicode="&#xea9d;" glyph-name="youtube" d="M1013.8 652.8c0 0-10 70.6-40.8 101.6-39 40.8-82.6 41-102.6 43.4-143.2 10.4-358.2 10.4-358.2 10.4h-0.4c0 0-215 0-358.2-10.4-20-2.4-63.6-2.6-102.6-43.4-30.8-31-40.6-101.6-40.6-101.6s-10.2-82.8-10.2-165.8v-77.6c0-82.8 10.2-165.8 10.2-165.8s10-70.6 40.6-101.6c39-40.8 90.2-39.4 113-43.8 82-7.8 348.2-10.2 348.2-10.2s215.2 0.4 358.4 10.6c20 2.4 63.6 2.6 102.6 43.4 30.8 31 40.8 101.6 40.8 101.6s10.2 82.8 10.2 165.8v77.6c-0.2 82.8-10.4 165.8-10.4 165.8zM406.2 315.2v287.8l276.6-144.4-276.6-143.4z" />
<glyph unicode="&#xeaca;" glyph-name="linkedin" d="M384 576h177.106v-90.782h2.532c24.64 44.194 84.958 90.782 174.842 90.782 186.946 0 221.52-116.376 221.52-267.734v-308.266h-184.61v273.278c0 65.184-1.334 149.026-96.028 149.026-96.148 0-110.82-70.986-110.82-144.292v-278.012h-184.542v576zM64 576h192v-576h-192v576zM256 736c0-53.019-42.981-96-96-96s-96 42.981-96 96c0 53.019 42.981 96 96 96s96-42.981 96-96z" />
</font>
</defs>
</svg>
